<mxfile host="app.diagrams.net" modified="2023-10-26T18:56:48.691Z" agent="Mozilla/5.0 (Windows NT 10.0; Win64; x64) AppleWebKit/537.36 (KHTML, like Gecko) Chrome/118.0.0.0 Safari/537.36" etag="fcwltiQ1hQ0bFUiBJTiO" version="22.0.8" type="github">
  <diagram name="Trang-1" id="H2OA27NQXLdwXokzJup1">
    <mxGraphModel dx="1843" dy="809" grid="1" gridSize="10" guides="1" tooltips="1" connect="1" arrows="1" fold="1" page="1" pageScale="1" pageWidth="850" pageHeight="1100" math="0" shadow="0">
      <root>
        <mxCell id="0" />
        <mxCell id="1" parent="0" />
        <mxCell id="GbuXWNOF_mOrVQW2tq48-1" value="" style="rounded=0;whiteSpace=wrap;html=1;" vertex="1" parent="1">
          <mxGeometry x="40" y="20" width="780" height="860" as="geometry" />
        </mxCell>
        <mxCell id="GbuXWNOF_mOrVQW2tq48-2" value="Header" style="rounded=0;whiteSpace=wrap;html=1;" vertex="1" parent="1">
          <mxGeometry x="50" y="30" width="760" height="60" as="geometry" />
        </mxCell>
        <mxCell id="GbuXWNOF_mOrVQW2tq48-3" value="Phim đang chiếu" style="rounded=0;whiteSpace=wrap;html=1;" vertex="1" parent="1">
          <mxGeometry x="310" y="130" width="260" height="40" as="geometry" />
        </mxCell>
        <mxCell id="GbuXWNOF_mOrVQW2tq48-4" value="Phim 1" style="rounded=0;whiteSpace=wrap;html=1;" vertex="1" parent="1">
          <mxGeometry x="90" y="210" width="290" height="180" as="geometry" />
        </mxCell>
        <mxCell id="GbuXWNOF_mOrVQW2tq48-6" value="Phim 2" style="rounded=0;whiteSpace=wrap;html=1;" vertex="1" parent="1">
          <mxGeometry x="440" y="210" width="290" height="180" as="geometry" />
        </mxCell>
        <mxCell id="GbuXWNOF_mOrVQW2tq48-7" value="Phim 3" style="rounded=0;whiteSpace=wrap;html=1;" vertex="1" parent="1">
          <mxGeometry x="90" y="410" width="290" height="180" as="geometry" />
        </mxCell>
        <mxCell id="GbuXWNOF_mOrVQW2tq48-8" value="Phim 4" style="rounded=0;whiteSpace=wrap;html=1;" vertex="1" parent="1">
          <mxGeometry x="440" y="410" width="290" height="180" as="geometry" />
        </mxCell>
        <mxCell id="GbuXWNOF_mOrVQW2tq48-9" value="Phim 5" style="rounded=0;whiteSpace=wrap;html=1;" vertex="1" parent="1">
          <mxGeometry x="90" y="610" width="290" height="180" as="geometry" />
        </mxCell>
        <mxCell id="GbuXWNOF_mOrVQW2tq48-10" value="Phim 6" style="rounded=0;whiteSpace=wrap;html=1;" vertex="1" parent="1">
          <mxGeometry x="440" y="610" width="290" height="180" as="geometry" />
        </mxCell>
      </root>
    </mxGraphModel>
  </diagram>
</mxfile>
